<?xml version="1.0" encoding="UTF-8"?>
<svg id="Camada_2" data-name="Camada 2" xmlns="http://www.w3.org/2000/svg" viewBox="0 0 396.11 476.07">
  <defs>
    <style>
      .cls-1 {
        fill: #fff;
      }
    </style>
  </defs>
  <g id="Camada_1-2" data-name="Camada 1">
    <path class="cls-1" d="M197.18,429.96h7.29l-11.72,30.09c-.74,1.91-2.35,2.87-4.82,2.87-1.35,0-2.39-.22-3.13-.65-.74-.43-1.33-1.17-1.76-2.22l-11.79-30.09h7.62l9.12,26.38,9.18-26.38ZM210.21,462.52h7.03v-32.57h-7.03v32.57ZM216.98,424.42c.78-.82,1.17-1.93,1.17-3.32s-.39-2.49-1.17-3.29c-.78-.8-1.85-1.2-3.19-1.2s-2.42.4-3.22,1.2c-.8.8-1.2,1.9-1.2,3.29s.4,2.5,1.2,3.32c.8.82,1.88,1.24,3.22,1.24s2.41-.41,3.19-1.24M237.37,457.9c-1.69,0-3.05-.46-4.07-1.37-1.02-.91-1.53-2.11-1.53-3.58,0-3.86,3.13-5.8,9.38-5.8,1.47,0,3.34.11,5.6.33-.17,3.08-1.06,5.59-2.67,7.52-1.61,1.93-3.84,2.9-6.71,2.9M239.32,429.11c-5.56,0-10.14,1.74-13.74,5.21l3.39,4.56c3.17-2.56,6.51-3.84,10.03-3.84,2.48,0,4.39.62,5.73,1.85,1.34,1.24,2.02,3.05,2.02,5.44v.72c-2.26-.3-4.32-.46-6.19-.46-4.69,0-8.51.85-11.46,2.54-2.95,1.69-4.43,4.41-4.43,8.14,0,3,1.03,5.42,3.09,7.26,2.06,1.85,4.76,2.77,8.11,2.77,4.91,0,8.6-1.91,11.07-5.73v4.95h6.45v-19.86c0-4.34-1.26-7.69-3.78-10.03-2.52-2.35-5.95-3.52-10.29-3.52M275.27,446.04c-4.91,0-7.36-1.87-7.36-5.6,0-1.87.65-3.32,1.95-4.36,1.3-1.04,3.1-1.56,5.41-1.56s4.12.51,5.47,1.53c1.34,1.02,2.02,2.44,2.02,4.27s-.67,3.24-2.02,4.23c-1.35,1-3.17,1.5-5.47,1.5M277.36,462.33c2.52.3,4.33.72,5.44,1.24,1.11.52,1.66,1.41,1.66,2.67,0,3.04-3.13,4.56-9.38,4.56-5.86,0-8.79-1.61-8.79-4.82,0-1.91,1.26-3.45,3.78-4.62,1.17.22,3.6.54,7.29.98M288.69,426.57c-1.56,1.74-3.52,3.15-5.86,4.23-2.17-.96-4.65-1.43-7.42-1.43-4.21,0-7.58,1.01-10.1,3.03-2.52,2.02-3.78,4.72-3.78,8.11s1.37,6.23,4.1,8.14c-2.35,1.48-3.52,3.37-3.52,5.67s.93,3.95,2.8,5.21c-3.52,1.56-5.28,3.99-5.28,7.3,0,2.95,1.36,5.23,4.07,6.84,2.71,1.61,6.42,2.41,11.1,2.41,5.25,0,9.31-.88,12.18-2.64,2.87-1.76,4.3-4.31,4.3-7.65,0-3.65-1.87-6.23-5.6-7.75-1.52-.56-5.15-1.22-10.88-1.95-2.17-.26-3.79-.62-4.85-1.08-1.06-.45-1.6-1.14-1.6-2.05,0-1,.59-1.78,1.76-2.35,1.52.39,3.21.59,5.08.59,4.26,0,7.65-.98,10.19-2.93,2.54-1.95,3.81-4.6,3.81-7.95,0-2.34-.63-4.38-1.89-6.12,2-1.09,3.56-2.26,4.69-3.52l-3.32-4.1ZM312.27,434.58c2.08,0,3.74.53,4.98,1.6,1.24,1.06,1.86,2.35,1.86,3.87,0,1.3-.37,2.3-1.11,3s-1.76,1.04-3.06,1.04h-12.57c.39-2.95,1.49-5.28,3.29-6.97,1.8-1.69,4-2.54,6.61-2.54M311.88,457.31c-5.39,0-8.51-2.73-9.38-8.21h13.74c3.08,0,5.43-.8,7.03-2.41,1.61-1.61,2.41-3.71,2.41-6.32,0-3.56-1.3-6.33-3.91-8.3-2.61-1.98-5.71-2.96-9.31-2.96-5.25,0-9.37,1.69-12.34,5.08-2.97,3.39-4.46,7.55-4.46,12.5s1.47,9.11,4.4,12.08c2.93,2.97,6.74,4.46,11.43,4.46,5.25,0,9.81-1.65,13.68-4.95l-3.26-4.76c-3.13,2.52-6.47,3.78-10.03,3.78M352.19,429.11c-4.04,0-8.1,1.59-12.18,4.75v-3.91h-6.84v32.57h7.23v-23.12c3.56-2.78,6.93-4.17,10.1-4.17,1.69,0,2.93.46,3.71,1.37.78.91,1.17,2.43,1.17,4.56v21.36h7.23v-22.99c0-3.34-.9-5.92-2.7-7.72-1.8-1.8-4.37-2.7-7.72-2.7M382.09,463.24c3.73,0,6.9-.89,9.51-2.67,2.61-1.78,3.91-4.28,3.91-7.49,0-1.52-.28-2.83-.85-3.94-.57-1.11-1.47-2.04-2.7-2.8-1.24-.76-2.37-1.36-3.39-1.79-1.02-.43-2.44-.93-4.27-1.5-1.17-.35-2.01-.61-2.51-.78-.5-.17-1.14-.46-1.92-.85-.78-.39-1.33-.84-1.66-1.33-.32-.5-.49-1.08-.49-1.73,0-1.13.54-2.05,1.63-2.77,1.08-.72,2.5-1.08,4.23-1.08,2.82,0,5.64.93,8.47,2.8l2.93-4.56c-3.26-2.43-7.12-3.65-11.6-3.65-3.65,0-6.67.86-9.05,2.57-2.39,1.72-3.58,4.11-3.58,7.2,0,2.56.86,4.54,2.57,5.93,1.71,1.39,4.14,2.58,7.26,3.58.3.09.81.24,1.53.46.72.22,1.25.39,1.6.52.35.13.81.3,1.4.52.59.22,1.03.44,1.34.65.3.22.62.48.94.78.33.3.56.64.72,1.01.15.37.23.77.23,1.2,0,1.35-.63,2.37-1.89,3.06-1.26.69-2.76,1.04-4.5,1.04-3.52,0-6.84-1.32-9.96-3.97l-3.06,4.49c3.21,3.39,7.6,5.08,13.16,5.08M62.12,266.74c18.33,0,34.79,7.94,46.16,20.55,5.49,6.1,3.68,15.77-3.71,19.44-5,2.48-11.09,1.18-14.84-2.95-6.82-7.51-16.66-12.23-27.61-12.23-20.59,0-37.29,16.68-37.29,37.26v49.66c0,7.06-5.89,12.74-13.02,12.4-6.68-.31-11.82-6.07-11.82-12.75v-98.97c0-8.13,7.81-14.43,16.33-11.82,5.12,1.57,8.5,6.42,8.5,11.77,0,.03.03.03.04.02,0,0,0,0,0,0,10.38-7.79,23.25-12.39,37.23-12.39M279.23,291.22c-.15.21-.39.34-.65.34h-29.43c-.44,0-.79-.35-.79-.79v-23.23c0-.44.35-.79.79-.79h57.27c.85,0,1.1,1.16.33,1.51-11.13,5.02-20.65,13.01-27.52,22.97M231.68,219.65c6.86,0,12.42,5.56,12.42,12.42v96.75c0,34.28-27.81,62.08-62.12,62.08s-62.12-27.79-62.12-62.08,27.81-62.08,62.12-62.08h32.23c.44,0,.79.35.79.79v23.23c0,.44-.35.79-.79.79h-32.23c-20.59,0-37.29,16.68-37.29,37.26s16.69,37.26,37.29,37.26,37.29-16.68,37.29-37.26v-96.75c0-6.86,5.56-12.42,12.42-12.42h0M396.05,326.02c.04.93.06,1.86.06,2.79,0,34.28-27.81,62.08-62.12,62.08s-62.12-27.79-62.12-62.08,27.81-62.08,62.12-62.08c1.53,0,3.06.06,4.56.17,7.98.59,13.27,8.53,10.66,16.09l-.23.68c-1.78,5.17-6.85,8.36-12.3,7.97-.89-.06-1.78-.1-2.69-.1-20.59,0-37.29,16.68-37.29,37.26s16.69,37.26,37.29,37.26,37.29-16.68,37.29-37.26c0-.48,0-.96-.03-1.44-.22-5.76,3.44-10.96,9.01-12.44l.52-.14c7.5-1.99,14.92,3.47,15.27,11.22M295.9,162.37c-.35-3.95-.75-7.9-1.11-10.54-8.57-61.56-40.83-113.69-88.06-149.74-5.9-4.51-14.24-1.48-14.24,6.7v142.03c0,4.68,3.9,8.31,8.67,7.97,27.55-1.98,52.3,1.02,74.64,8.4,2.09.69,5.45,2.02,8.89,3.43,5.65,2.33,11.76-2.16,11.22-8.25M162.35,48.68c-33,29.41-55.53,68.37-62.07,111.91-.79,5.23,3.17,9.62,8.42,10.32,3.49.47,7.62.51,11.26.43,16.14-.37,33.16-5.61,50.74-8.63,3.22-.55,5.37-3.17,5.37-6.16V54.8c0-7.11-8.41-10.85-13.71-6.12"/>
  </g>
</svg>