<?xml version="1.0" encoding="UTF-8"?>
<svg id="Camada_3" data-name="Camada 3" xmlns="http://www.w3.org/2000/svg" viewBox="0 0 269.62 106.08">
  <defs>
    <style>
      .cls-1 {
        fill: #00148a;
      }
    </style>
  </defs>
  <g id="Camada_1" data-name="Camada 1">
    <path class="cls-1" d="M25.67,20.1C12.04,32.25,2.74,48.34.04,66.32c-.33,2.16,1.31,3.97,3.48,4.26,1.44.19,3.14.21,4.65.18,6.67-.15,13.69-2.32,20.95-3.56,1.33-.23,2.22-1.31,2.22-2.54V22.63c0-2.94-3.47-4.48-5.66-2.53M131.7,19.45c-5.77,0-11.09,1.9-15.38,5.12,0,0,0,0,0,0,0,0-.02,0-.02-.01,0-2.21-1.4-4.21-3.51-4.86-3.52-1.08-6.74,1.52-6.74,4.88v40.87c0,2.76,2.12,5.14,4.88,5.27,2.94.14,5.37-2.21,5.37-5.12v-20.51c0-8.5,6.89-15.39,15.4-15.39,4.52,0,8.58,1.95,11.4,5.05,1.55,1.71,4.07,2.24,6.13,1.22,3.05-1.51,3.8-5.51,1.53-8.03-4.69-5.21-11.49-8.49-19.06-8.49M221.36,29.55c2.84-4.11,6.77-7.41,11.36-9.48.32-.14.22-.62-.14-.62h-23.65c-.18,0-.33.15-.33.33v9.59c0,.18.15.33.33.33h12.15c.11,0,.21-.05.27-.14M201.72,0h0c-2.83,0-5.13,2.3-5.13,5.13v39.95c0,8.5-6.89,15.39-15.4,15.39s-15.4-6.89-15.4-15.39,6.89-15.39,15.4-15.39c0,0,0,0,0,0h13.31c.18,0,.33-.15.33-.33v-9.59c0-.18-.15-.33-.33-.33h-13.31c-14.17,0-25.65,11.48-25.65,25.63s11.48,25.63,25.65,25.63,25.65-11.48,25.65-25.63V5.13c0-2.83-2.3-5.13-5.13-5.13M269.6,43.93c-.14-3.2-3.21-5.46-6.3-4.63l-.21.06c-2.3.61-3.81,2.75-3.72,5.13,0,.2.01.4.01.6,0,8.5-6.89,15.39-15.4,15.39s-15.4-6.89-15.4-15.39,6.89-15.39,15.4-15.39c.37,0,.74.01,1.11.04,2.25.16,4.35-1.16,5.08-3.29l.1-.28c1.07-3.12-1.11-6.4-4.4-6.65-.62-.05-1.25-.07-1.88-.07-14.17,0-25.65,11.48-25.65,25.63s11.48,25.63,25.65,25.63,25.65-11.48,25.65-25.63c0-.39,0-.77-.03-1.15M80.82,67.05c.22,2.51-2.3,4.37-4.63,3.41-1.42-.58-2.8-1.13-3.67-1.42-9.22-3.05-19.45-4.29-30.82-3.47-1.97.14-3.58-1.36-3.58-3.29V3.63c0-3.38,3.44-4.63,5.88-2.76,19.5,14.89,32.82,36.41,36.36,61.83.15,1.09.31,2.72.46,4.35M187.65,87.04h3.01l-4.84,12.42c-.3.79-.97,1.18-1.99,1.18-.56,0-.99-.09-1.29-.27-.3-.18-.55-.48-.73-.92l-4.87-12.42h3.15l3.77,10.89,3.79-10.89ZM193.03,87.04h2.9v13.45h-2.9v-13.45ZM195.83,84.75c-.32.34-.76.51-1.32.51s-1-.17-1.33-.51c-.33-.34-.5-.8-.5-1.37s.17-1.03.5-1.36c.33-.33.78-.5,1.33-.5s.99.17,1.32.5c.32.33.48.78.48,1.36s-.16,1.03-.48,1.37M204.24,98.58c1.18,0,2.11-.4,2.77-1.2.66-.8,1.03-1.83,1.1-3.11-.93-.09-1.7-.13-2.31-.13-2.58,0-3.87.8-3.87,2.39,0,.61.21,1.1.63,1.48.42.38.98.56,1.68.56M205.05,86.69c1.79,0,3.21.48,4.25,1.45,1.04.97,1.56,2.35,1.56,4.14v8.2h-2.66v-2.04c-1.02,1.58-2.55,2.37-4.57,2.37-1.38,0-2.5-.38-3.35-1.14s-1.28-1.76-1.28-3c0-1.54.61-2.66,1.83-3.36,1.22-.7,2.8-1.05,4.73-1.05.77,0,1.62.06,2.56.19v-.3c0-.99-.28-1.74-.83-2.25-.56-.51-1.34-.77-2.37-.77-1.45,0-2.83.53-4.14,1.59l-1.4-1.88c1.49-1.43,3.38-2.15,5.67-2.15M219.9,93.68c.95,0,1.7-.21,2.26-.62.56-.41.83-1,.83-1.75s-.28-1.34-.83-1.76c-.56-.42-1.31-.63-2.26-.63s-1.69.22-2.23.65c-.54.43-.81,1.03-.81,1.8,0,1.54,1.01,2.31,3.04,2.31M220.76,100.4c-1.52-.18-2.53-.31-3.01-.4-1.04.48-1.56,1.12-1.56,1.91,0,1.33,1.21,1.99,3.63,1.99,2.58,0,3.87-.63,3.87-1.88,0-.52-.23-.89-.69-1.1-.46-.22-1.21-.39-2.25-.51M226.81,87.33c-.47.52-1.11,1-1.94,1.45.52.72.78,1.56.78,2.53,0,1.38-.52,2.47-1.57,3.28-1.05.81-2.45,1.21-4.21,1.21-.77,0-1.47-.08-2.1-.24-.48.23-.73.56-.73.97,0,.38.22.66.66.85.44.19,1.11.34,2,.44,2.37.3,3.86.57,4.49.81,1.54.63,2.31,1.69,2.31,3.2,0,1.38-.59,2.43-1.78,3.16s-2.86,1.09-5.03,1.09c-1.94,0-3.47-.33-4.59-1-1.12-.66-1.68-1.6-1.68-2.82,0-1.36.73-2.37,2.18-3.01-.77-.52-1.16-1.24-1.16-2.15s.48-1.73,1.45-2.34c-1.13-.79-1.69-1.91-1.69-3.36s.52-2.51,1.56-3.35c1.04-.83,2.43-1.25,4.17-1.25,1.15,0,2.17.2,3.07.59.97-.45,1.77-1.03,2.42-1.75l1.37,1.69ZM235.17,88.95c-1.08,0-1.99.35-2.73,1.05-.74.7-1.2,1.66-1.36,2.88h5.19c.54,0,.96-.14,1.26-.43.31-.29.46-.7.46-1.24,0-.63-.26-1.16-.77-1.6-.51-.44-1.2-.66-2.06-.66M235.01,98.33c1.47,0,2.85-.52,4.14-1.56l1.34,1.96c-1.6,1.36-3.48,2.04-5.65,2.04-1.94,0-3.51-.61-4.72-1.84-1.21-1.23-1.81-2.89-1.81-4.99s.61-3.76,1.84-5.16c1.23-1.4,2.93-2.1,5.1-2.1,1.49,0,2.77.41,3.85,1.22,1.08.82,1.61,1.96,1.61,3.43,0,1.08-.33,1.95-.99,2.61-.66.66-1.63.99-2.9.99h-5.67c.36,2.26,1.65,3.39,3.87,3.39M251.66,86.69c1.38,0,2.44.37,3.19,1.12s1.12,1.81,1.12,3.19v9.49h-2.99v-8.82c0-.88-.16-1.51-.48-1.88-.32-.38-.83-.57-1.53-.57-1.31,0-2.7.57-4.17,1.72v9.55h-2.99v-13.45h2.82v1.61c1.68-1.31,3.36-1.96,5.03-1.96M264,100.78c-2.3,0-4.11-.7-5.43-2.1l1.26-1.86c1.29,1.09,2.66,1.64,4.11,1.64.72,0,1.34-.14,1.86-.43.52-.29.78-.71.78-1.26,0-.18-.03-.35-.09-.5-.06-.15-.16-.29-.3-.42-.14-.12-.26-.23-.39-.32-.13-.09-.31-.18-.55-.27-.24-.09-.43-.16-.58-.22-.14-.05-.36-.12-.66-.21s-.51-.15-.63-.19c-1.29-.41-2.29-.9-3-1.48-.71-.57-1.06-1.39-1.06-2.45,0-1.27.49-2.26,1.48-2.97.98-.71,2.23-1.06,3.74-1.06,1.85,0,3.44.5,4.79,1.51l-1.21,1.88c-1.17-.77-2.33-1.16-3.5-1.16-.72,0-1.3.15-1.75.44-.45.3-.67.68-.67,1.14,0,.27.07.51.2.71.14.21.36.39.69.55.32.16.59.28.79.35.21.07.55.18,1.04.32.75.23,1.34.44,1.76.62.42.18.89.43,1.4.74.51.31.88.7,1.12,1.16.23.46.35,1,.35,1.63,0,1.33-.54,2.36-1.61,3.09-1.08.74-2.38,1.1-3.93,1.1"/>
  </g>
</svg>