<?xml version="1.0" encoding="UTF-8"?>
<svg id="Camada_2" data-name="Camada 2" xmlns="http://www.w3.org/2000/svg" viewBox="0 0 2733.03 2395.37">
  <defs>
    <style>
      .cls-1 {
        fill: #ff9100;
      }
    </style>
  </defs>
  <g id="Camada_1-2" data-name="Camada 1">
    <path class="cls-1" d="M244.97,2395.37c-46.36,0-85.16-2.15-117.84-6.5-40.82-5.43-77.64-26.37-101.01-57.46-21.11-28.07-29.86-62.67-24.65-97.42,44.73-297.67,143.56-584.41,293.73-852.24,146.42-261.14,338.07-498.18,569.61-704.53,37.23-33.19,88.59-41.15,134.05-20.78,45.29,20.3,73.43,63.76,73.43,113.43v1409.63c0,22.79-8.17,44.88-22.99,62.2-15.02,17.54-36.36,29.45-60.08,33.53-81.09,13.91-162.27,31.46-240.77,48.44-161.34,34.89-313.74,67.84-463.7,71.22-13.84.32-27.09.48-39.77.48ZM947.51,666.34c-24.8,0-49.12,9.07-68.73,26.55h0C413.8,1107.3,109.6,1655.71,22.24,2237.11c-4.44,29.56,2.71,57.8,20.66,81.68,20.01,26.61,51.72,44.57,87,49.26,40.52,5.4,91.01,7.31,154.36,5.84,147.96-3.34,299.41-36.08,459.74-70.76,78.72-17.02,160.12-34.62,241.65-48.61,38.64-6.64,65.62-37.5,65.62-75.03V769.87c0-41.28-23.38-77.4-61.02-94.27-13.86-6.21-28.39-9.26-42.75-9.26ZM2609.87,2393.61c-15.88,0-31.89-3.1-47.22-9.41-54.71-22.57-97.03-38.92-122.4-47.28-312.94-103.5-659.49-142.5-1030.01-115.93-35.05,2.5-68.13-8.95-93.14-32.24-24.65-22.95-38.22-54.42-38.22-88.59V132.33c0-54.25,24.94-97.7,68.43-119.22,45.62-22.58,101.44-15.63,145.67,18.12,163.98,125.18,315.86,265.24,451.43,416.3,136.61,152.21,258.44,317.57,362.09,491.48,105.17,176.46,193.1,364.2,261.34,557.99,69.66,197.83,119.85,405,149.19,615.77,4.43,31.69,9.65,80.97,15.52,146.46h0c3.86,43.27-14.72,84.48-49.7,110.23-21.68,15.96-47.15,24.16-72.96,24.16ZM1634.6,2191.85c109.59,0,216.67,5.94,320.2,17.81,170.18,19.51,335.73,55.62,492.03,107.31,32.64,10.76,85.35,31.94,123.82,47.81,33.38,13.73,70.67,9.16,99.73-12.24,29.02-21.37,44.44-55.56,41.24-91.45-5.84-65.14-11.02-114.07-15.4-145.43-114.44-822.15-546.29-1556.49-1215.99-2067.75-37.83-28.87-85.2-35-123.61-15.99-36.06,17.84-56.74,54.44-56.74,100.4v1967.83c0,28.28,11.2,54.29,31.54,73.22,20.7,19.28,48.18,28.75,77.33,26.66,76.2-5.46,151.61-8.19,225.86-8.19Z"/>
  </g>
</svg>