<?xml version="1.0" encoding="UTF-8"?>
<svg id="Camada_3" data-name="Camada 3" xmlns="http://www.w3.org/2000/svg" viewBox="0 0 159.01 62.78">
  <defs>
    <style>
      .cls-1 {
        fill: #f47386;
      }
    </style>
  </defs>
  <g id="Camada_1" data-name="Camada 1">
    <path class="cls-1" d="M15.14,11.85C7.1,19.02,1.62,28.5.02,39.11c-.19,1.27.77,2.34,2.05,2.51.85.11,1.85.12,2.74.1,3.93-.09,8.08-1.37,12.35-2.1.78-.13,1.31-.77,1.31-1.5V13.35c0-1.73-2.05-2.64-3.34-1.49M77.67,11.47c-3.41,0-6.54,1.12-9.07,3.02,0,0,0,0,0,0,0,0-.01,0-.01,0,0-1.3-.82-2.48-2.07-2.87-2.08-.64-3.98.9-3.98,2.88v24.1c0,1.63,1.25,3.03,2.88,3.11,1.74.08,3.17-1.3,3.17-3.02v-12.09c0-5.01,4.07-9.07,9.08-9.07,2.67,0,5.06,1.15,6.72,2.98.91,1.01,2.4,1.32,3.61.72,1.8-.89,2.24-3.25.9-4.73-2.77-3.07-6.78-5-11.24-5M130.54,17.43c1.67-2.42,3.99-4.37,6.7-5.59.19-.08.13-.37-.08-.37h-13.95c-.11,0-.19.09-.19.19v5.66c0,.11.09.19.19.19h7.17c.06,0,.12-.03.16-.08M118.96,0h0c-1.67,0-3.02,1.35-3.02,3.02v23.56c0,5.01-4.07,9.07-9.08,9.07s-9.08-4.06-9.08-9.07,4.06-9.07,9.08-9.07c0,0,0,0,0,0h7.85c.11,0,.19-.09.19-.19v-5.66c0-.11-.09-.19-.19-.19h-7.85c-8.35,0-15.13,6.77-15.13,15.12s6.77,15.12,15.13,15.12,15.13-6.77,15.13-15.12V3.02c0-1.67-1.35-3.02-3.02-3.02M158.98,25.9c-.09-1.89-1.89-3.22-3.72-2.73l-.13.03c-1.36.36-2.25,1.62-2.19,3.03,0,.12,0,.23,0,.35,0,5.01-4.07,9.07-9.08,9.07s-9.08-4.06-9.08-9.07,4.06-9.07,9.08-9.07c.22,0,.44,0,.65.02,1.33.1,2.56-.68,3-1.94l.06-.17c.63-1.84-.65-3.78-2.6-3.92-.37-.03-.74-.04-1.11-.04-8.35,0-15.13,6.77-15.13,15.12s6.77,15.12,15.13,15.12,15.13-6.77,15.13-15.12c0-.23,0-.46-.02-.68M47.66,39.54c.13,1.48-1.36,2.58-2.73,2.01-.84-.34-1.65-.67-2.16-.84-5.44-1.8-11.47-2.53-18.18-2.05-1.16.08-2.11-.8-2.11-1.94V2.14c0-1.99,2.03-2.73,3.47-1.63,11.5,8.78,19.36,21.47,21.44,36.46.09.64.19,1.6.27,2.57M37.3,51.4c-.28.32-.67.61-1.18.88.32.44.47.95.47,1.53,0,.84-.32,1.5-.96,1.99-.64.49-1.49.73-2.55.73-.47,0-.89-.05-1.27-.15-.29.14-.44.34-.44.59,0,.23.13.4.4.51.27.11.67.2,1.22.27,1.44.19,2.34.35,2.73.49.94.38,1.4,1.03,1.4,1.94,0,.84-.36,1.48-1.08,1.92s-1.74.66-3.05.66c-1.18,0-2.1-.2-2.78-.6s-1.02-.97-1.02-1.71c0-.83.44-1.44,1.32-1.83-.47-.32-.7-.75-.7-1.31s.29-1.05.88-1.42c-.69-.48-1.03-1.16-1.03-2.04s.32-1.53.95-2.03c.63-.51,1.47-.76,2.53-.76.7,0,1.32.12,1.86.36.59-.27,1.08-.63,1.47-1.06l.83,1.03ZM33.62,59.34c-.93-.11-1.53-.19-1.83-.25-.63.29-.95.68-.95,1.16,0,.8.73,1.21,2.2,1.21,1.57,0,2.35-.38,2.35-1.14,0-.32-.14-.54-.42-.67-.28-.13-.73-.23-1.36-.31ZM33.1,55.25c.58,0,1.03-.12,1.37-.38.34-.25.51-.6.51-1.06s-.17-.81-.51-1.07c-.34-.26-.79-.38-1.37-.38s-1.03.13-1.35.39-.49.63-.49,1.09c0,.94.61,1.4,1.84,1.4ZM42.11,58.08c.89,0,1.73-.32,2.51-.95l.82,1.19c-.97.83-2.11,1.24-3.43,1.24-1.18,0-2.13-.37-2.86-1.12-.73-.74-1.1-1.75-1.1-3.03s.37-2.29,1.12-3.13c.74-.85,1.78-1.27,3.09-1.27.9,0,1.68.25,2.33.74s.98,1.19.98,2.08c0,.65-.2,1.18-.6,1.58s-.99.6-1.76.6h-3.44c.22,1.37,1,2.06,2.35,2.06ZM42.21,52.38c-.65,0-1.21.21-1.66.64-.45.42-.73,1.01-.82,1.75h3.15c.33,0,.58-.09.77-.26.18-.17.28-.42.28-.75,0-.38-.16-.7-.47-.97-.31-.27-.73-.4-1.25-.4ZM49.86,59.56c-1.39,0-2.49-.42-3.3-1.27l.77-1.13c.78.66,1.62,1,2.5,1,.44,0,.81-.09,1.13-.26.32-.17.47-.43.47-.77,0-.11-.02-.21-.06-.3-.04-.09-.1-.18-.18-.25-.08-.08-.16-.14-.24-.2-.08-.05-.19-.11-.33-.16-.15-.05-.26-.1-.35-.13-.09-.03-.22-.08-.4-.13-.18-.05-.31-.09-.38-.11-.78-.25-1.39-.55-1.82-.9-.43-.35-.64-.84-.64-1.49,0-.77.3-1.37.9-1.8.6-.43,1.35-.64,2.27-.64,1.12,0,2.09.3,2.91.91l-.73,1.14c-.71-.47-1.41-.7-2.12-.7-.44,0-.79.09-1.06.27-.27.18-.41.41-.41.69,0,.16.04.31.12.43.08.12.22.24.42.33.2.1.36.17.48.21s.33.11.63.2c.46.14.81.27,1.07.38.26.11.54.26.85.45s.54.42.68.7c.14.28.21.61.21.99,0,.8-.33,1.43-.98,1.88s-1.45.67-2.38.67ZM59.82,57.47l.62,1.32c-.71.51-1.5.77-2.38.77s-1.51-.26-1.96-.77c-.45-.52-.67-1.23-.67-2.13v-4.13h-1.32v-1.31h1.32v-2.53h1.76v2.53h2.77v1.31h-2.77v4.08c0,.47.12.81.37,1.02.24.21.53.32.86.32.47,0,.94-.16,1.4-.47ZM64.59,51.01c1.09,0,1.95.29,2.58.88s.95,1.43.95,2.51v4.98h-1.62v-1.24c-.62.96-1.55,1.44-2.77,1.44-.84,0-1.52-.23-2.03-.69s-.78-1.07-.78-1.82c0-.94.37-1.62,1.11-2.04.74-.42,1.7-.64,2.87-.64.47,0,.98.04,1.55.11v-.18c0-.6-.17-1.05-.51-1.36-.34-.31-.82-.47-1.44-.47-.88,0-1.72.32-2.51.96l-.85-1.14c.9-.87,2.05-1.31,3.44-1.31ZM63.69,49.23c-.39,0-.69.3-.9.9l-1.16-.44c.14-.58.39-1.01.73-1.3.35-.29.76-.43,1.22-.43.38,0,.79.15,1.22.45.43.3.75.45.96.45.4,0,.69-.3.85-.91l1.22.38c-.11.56-.35,1-.73,1.32-.38.33-.79.49-1.22.49-.37,0-.78-.15-1.22-.45-.45-.3-.77-.45-.96-.45ZM64.1,58.22c.72,0,1.28-.24,1.68-.73.4-.48.63-1.11.67-1.89-.57-.05-1.03-.08-1.4-.08-1.57,0-2.35.48-2.35,1.45,0,.37.13.67.38.9.26.23.6.34,1.02.34ZM73.76,59.6c-1.22,0-2.19-.39-2.92-1.18-.73-.78-1.09-1.82-1.08-3.12.01-1.31.38-2.35,1.1-3.13s1.69-1.17,2.9-1.17,2.21.39,2.93,1.17,1.09,1.82,1.09,3.13-.36,2.33-1.09,3.12c-.72.78-1.7,1.18-2.93,1.18ZM73.76,58.09c1.49,0,2.24-.93,2.24-2.79s-.75-2.79-2.24-2.79c-.73,0-1.28.24-1.66.71-.38.47-.57,1.17-.57,2.08,0,1.86.74,2.79,2.24,2.79ZM88.66,47.73h1.76v11.65h-1.7v-.82c-.76.69-1.62,1.03-2.56,1.03-1.01,0-1.84-.38-2.49-1.14-.65-.76-.97-1.77-.97-3.02,0-1.34.36-2.41,1.08-3.22.72-.8,1.64-1.21,2.77-1.21.8,0,1.51.22,2.11.65v-3.93ZM86.54,58.08c.8,0,1.51-.34,2.12-1.01v-3.74c-.57-.53-1.22-.8-1.96-.8-.66,0-1.19.24-1.59.73s-.6,1.2-.6,2.14c0,.84.18,1.49.53,1.97.35.47.85.71,1.49.71ZM96.23,58.08c.89,0,1.73-.32,2.51-.95l.82,1.19c-.97.83-2.11,1.24-3.43,1.24-1.18,0-2.13-.37-2.86-1.12-.73-.74-1.1-1.75-1.1-3.03s.37-2.29,1.12-3.13c.74-.85,1.78-1.27,3.09-1.27.9,0,1.68.25,2.33.74s.98,1.19.98,2.08c0,.65-.2,1.18-.6,1.58s-.99.6-1.76.6h-3.44c.22,1.37,1,2.06,2.35,2.06ZM96.33,52.38c-.65,0-1.21.21-1.66.64-.45.42-.73,1.01-.82,1.75h3.15c.33,0,.58-.09.77-.26.18-.17.28-.42.28-.75,0-.38-.16-.7-.47-.97-.31-.27-.73-.4-1.25-.4ZM110.29,51.22h1.83l-2.94,7.54c-.19.48-.59.72-1.21.72-.34,0-.6-.05-.78-.16s-.33-.29-.44-.56l-2.95-7.54h1.91l2.28,6.61,2.3-6.61ZM115.08,49.84c-.2.21-.46.31-.8.31s-.61-.1-.81-.31c-.2-.21-.3-.48-.3-.83s.1-.62.3-.82.47-.3.81-.3.6.1.8.3c.2.2.29.48.29.82s-.1.63-.29.83ZM113.39,59.38v-8.16h1.76v8.16h-1.76ZM120.52,51.01c1.09,0,1.95.29,2.58.88s.95,1.43.95,2.51v4.98h-1.62v-1.24c-.62.96-1.55,1.44-2.77,1.44-.84,0-1.52-.23-2.03-.69s-.78-1.07-.78-1.82c0-.94.37-1.62,1.11-2.04.74-.42,1.7-.64,2.87-.64.47,0,.98.04,1.55.11v-.18c0-.6-.17-1.05-.51-1.36-.34-.31-.82-.47-1.44-.47-.88,0-1.72.32-2.51.96l-.85-1.14c.9-.87,2.05-1.31,3.44-1.31ZM120.03,58.22c.72,0,1.28-.24,1.68-.73.4-.48.63-1.11.67-1.89-.57-.05-1.03-.08-1.4-.08-1.57,0-2.35.48-2.35,1.45,0,.37.13.67.38.9.26.23.6.34,1.02.34ZM133.56,51.4c-.28.32-.67.61-1.18.88.32.44.47.95.47,1.53,0,.84-.32,1.5-.96,1.99-.64.49-1.49.73-2.55.73-.47,0-.89-.05-1.27-.15-.29.14-.44.34-.44.59,0,.23.13.4.4.51.27.11.67.2,1.22.27,1.44.19,2.34.35,2.73.49.94.38,1.4,1.03,1.4,1.94,0,.84-.36,1.48-1.08,1.92s-1.74.66-3.05.66c-1.18,0-2.1-.2-2.78-.6s-1.02-.97-1.02-1.71c0-.83.44-1.44,1.32-1.83-.47-.32-.7-.75-.7-1.31s.29-1.05.88-1.42c-.69-.48-1.03-1.16-1.03-2.04s.32-1.53.95-2.03c.63-.51,1.47-.76,2.53-.76.7,0,1.32.12,1.86.36.59-.27,1.08-.63,1.47-1.06l.83,1.03ZM129.89,59.34c-.93-.11-1.53-.19-1.83-.25-.63.29-.95.68-.95,1.16,0,.8.73,1.21,2.2,1.21,1.57,0,2.35-.38,2.35-1.14,0-.32-.14-.54-.42-.67-.28-.13-.73-.23-1.36-.31ZM129.37,55.25c.58,0,1.03-.12,1.37-.38.34-.25.51-.6.51-1.06s-.17-.81-.51-1.07c-.34-.26-.79-.38-1.37-.38s-1.03.13-1.35.39-.49.63-.49,1.09c0,.94.61,1.4,1.84,1.4ZM138.38,58.08c.89,0,1.73-.32,2.51-.95l.82,1.19c-.97.83-2.11,1.24-3.43,1.24-1.18,0-2.13-.37-2.86-1.12-.73-.74-1.1-1.75-1.1-3.03s.37-2.29,1.12-3.13c.74-.85,1.78-1.27,3.09-1.27.9,0,1.68.25,2.33.74s.98,1.19.98,2.08c0,.65-.2,1.18-.6,1.58s-.99.6-1.76.6h-3.44c.22,1.37,1,2.06,2.35,2.06ZM138.47,52.38c-.65,0-1.21.21-1.66.64-.45.42-.73,1.01-.82,1.75h3.15c.33,0,.58-.09.77-.26.18-.17.28-.42.28-.75,0-.38-.16-.7-.47-.97-.31-.27-.73-.4-1.25-.4ZM148.32,51.01c.84,0,1.48.23,1.93.68.45.45.68,1.1.68,1.93v5.76h-1.81v-5.35c0-.53-.1-.91-.29-1.14s-.51-.34-.93-.34c-.79,0-1.64.35-2.53,1.04v5.79h-1.81v-8.16h1.71v.98c1.02-.79,2.04-1.19,3.05-1.19ZM155.64,59.56c-1.39,0-2.49-.42-3.3-1.27l.77-1.13c.78.66,1.62,1,2.5,1,.44,0,.81-.09,1.13-.26.32-.17.47-.43.47-.77,0-.11-.02-.21-.06-.3-.04-.09-.1-.18-.18-.25-.08-.08-.16-.14-.24-.2-.08-.05-.19-.11-.33-.16-.15-.05-.26-.1-.35-.13-.09-.03-.22-.08-.4-.13-.18-.05-.31-.09-.38-.11-.78-.25-1.39-.55-1.82-.9-.43-.35-.64-.84-.64-1.49,0-.77.3-1.37.9-1.8.6-.43,1.35-.64,2.27-.64,1.12,0,2.09.3,2.91.91l-.73,1.14c-.71-.47-1.41-.7-2.12-.7-.44,0-.79.09-1.06.27-.27.18-.41.41-.41.69,0,.16.04.31.12.43.08.12.22.24.42.33.2.1.36.17.48.21s.33.11.63.2c.46.14.81.27,1.07.38.26.11.54.26.85.45s.54.42.68.7c.14.28.21.61.21.99,0,.8-.33,1.43-.98,1.88s-1.45.67-2.38.67Z"/>
  </g>
</svg>