<?xml version="1.0" encoding="UTF-8"?>
<svg id="Camada_2" data-name="Camada 2" xmlns="http://www.w3.org/2000/svg" viewBox="0 0 159 62.44">
  <defs>
    <style>
      .cls-1 {
        fill: #b78aff;
      }
    </style>
  </defs>
  <g id="Camada_1" data-name="Camada 1">
    <g>
      <path class="cls-1" d="M15.14,11.85C7.1,19.02,1.62,28.5.02,39.11c-.19,1.27.77,2.34,2.05,2.51.85.11,1.85.12,2.74.1,3.93-.09,8.08-1.37,12.35-2.1.78-.13,1.31-.77,1.31-1.5V13.35c0-1.73-2.05-2.64-3.34-1.49M77.67,11.47c-3.41,0-6.54,1.12-9.07,3.02,0,0,0,0,0,0,0,0-.01,0-.01,0,0-1.3-.82-2.48-2.07-2.87-2.08-.64-3.98.9-3.98,2.88v24.1c0,1.63,1.25,3.03,2.88,3.11,1.74.08,3.17-1.3,3.17-3.02v-12.09c0-5.01,4.07-9.07,9.08-9.07,2.67,0,5.06,1.15,6.72,2.98.91,1.01,2.4,1.32,3.61.72,1.8-.89,2.24-3.25.9-4.73-2.77-3.07-6.78-5-11.24-5M130.54,17.43c1.67-2.42,3.99-4.37,6.7-5.59.19-.08.13-.37-.08-.37h-13.95c-.11,0-.19.09-.19.19v5.66c0,.11.09.19.19.19h7.17c.06,0,.12-.03.16-.08M118.96,0h0c-1.67,0-3.02,1.35-3.02,3.02v23.56c0,5.01-4.07,9.07-9.08,9.07s-9.08-4.06-9.08-9.07,4.06-9.07,9.08-9.07c0,0,0,0,0,0h7.85c.11,0,.19-.09.19-.19v-5.66c0-.11-.09-.19-.19-.19h-7.85c-8.35,0-15.13,6.77-15.13,15.12s6.77,15.12,15.13,15.12,15.13-6.77,15.13-15.12V3.02c0-1.67-1.35-3.02-3.02-3.02M158.98,25.9c-.09-1.89-1.89-3.22-3.72-2.73l-.13.03c-1.36.36-2.25,1.62-2.19,3.03,0,.12,0,.23,0,.35,0,5.01-4.07,9.07-9.08,9.07s-9.08-4.06-9.08-9.07,4.06-9.07,9.08-9.07c.22,0,.44,0,.65.02,1.33.1,2.56-.68,3-1.94l.06-.17c.63-1.84-.65-3.78-2.6-3.92-.37-.03-.74-.04-1.11-.04-8.35,0-15.13,6.77-15.13,15.12s6.77,15.12,15.13,15.12,15.13-6.77,15.13-15.12c0-.23,0-.46-.02-.68M47.66,39.54c.13,1.48-1.36,2.58-2.73,2.01-.84-.34-1.65-.67-2.16-.84-5.44-1.8-11.47-2.53-18.18-2.05-1.16.08-2.11-.8-2.11-1.94V2.14c0-1.99,2.03-2.73,3.47-1.63,11.5,8.78,19.36,21.47,21.44,36.46.09.64.19,1.6.27,2.57"/>
      <g>
        <path class="cls-1" d="M96.43,51.01c1.03,0,1.88.38,2.52,1.14.65.76.97,1.77.97,3.02,0,1.32-.36,2.38-1.08,3.2-.72.82-1.65,1.22-2.81,1.22-.72,0-1.4-.17-2.06-.52v3.36h-1.78v-11.21h1.71v.77c.74-.65,1.58-.98,2.51-.98ZM95.89,58.08c.69,0,1.23-.25,1.62-.75.4-.5.6-1.21.6-2.14,0-.84-.17-1.49-.52-1.96-.35-.47-.84-.7-1.49-.7-.79,0-1.5.32-2.12.96v4.03c.62.37,1.26.56,1.91.56Z"/>
        <path class="cls-1" d="M104.82,51.01c1.09,0,1.95.29,2.58.88s.95,1.43.95,2.51v4.98h-1.62v-1.24c-.62.96-1.54,1.44-2.77,1.44-.84,0-1.52-.23-2.03-.69-.52-.46-.78-1.07-.78-1.82,0-.94.37-1.62,1.11-2.04.74-.42,1.7-.64,2.87-.64.47,0,.98.04,1.55.11v-.18c0-.6-.17-1.05-.51-1.36-.34-.31-.82-.46-1.44-.46-.88,0-1.72.32-2.51.96l-.85-1.14c.9-.87,2.05-1.31,3.44-1.31ZM104.33,58.22c.72,0,1.28-.24,1.68-.73.4-.48.62-1.11.67-1.89-.57-.05-1.03-.08-1.4-.08-1.57,0-2.35.48-2.35,1.45,0,.37.13.67.38.9.25.23.6.34,1.02.34Z"/>
        <path class="cls-1" d="M114.72,51.01c.4,0,.78.08,1.13.24l-.34,1.47c-.38-.11-.69-.16-.93-.16-.84,0-1.62.36-2.33,1.08v5.75h-1.78v-8.16h1.73v1c.72-.8,1.56-1.21,2.53-1.21Z"/>
        <path class="cls-1" d="M120.21,59.58c-1.17,0-2.13-.38-2.86-1.15-.73-.77-1.1-1.8-1.1-3.11s.37-2.35,1.11-3.13c.74-.78,1.73-1.18,2.97-1.18,1.61,0,2.75.63,3.41,1.89l-1.4.8c-.42-.79-1.09-1.19-1.99-1.19-.66,0-1.21.24-1.65.71-.44.47-.65,1.17-.65,2.1s.21,1.6.63,2.06.96.69,1.62.69c.88,0,1.62-.46,2.2-1.37l1.32.82c-.3.6-.76,1.09-1.38,1.49-.62.39-1.36.59-2.23.59Z"/>
        <path class="cls-1" d="M128.58,58.08c.89,0,1.73-.32,2.51-.95l.82,1.19c-.97.83-2.11,1.24-3.43,1.24-1.17,0-2.13-.37-2.86-1.12-.73-.75-1.1-1.75-1.1-3.03s.37-2.29,1.12-3.13c.75-.85,1.78-1.27,3.09-1.27.9,0,1.68.25,2.33.74s.98,1.19.98,2.08c0,.65-.2,1.18-.6,1.58-.4.4-.99.6-1.76.6h-3.44c.22,1.37,1,2.06,2.35,2.06ZM128.68,52.38c-.65,0-1.21.21-1.66.64-.45.42-.73,1.01-.82,1.75h3.15c.33,0,.58-.09.77-.26.18-.17.28-.42.28-.75,0-.38-.16-.7-.47-.97-.31-.27-.73-.4-1.25-.4Z"/>
        <path class="cls-1" d="M138.02,51.01c.4,0,.78.08,1.13.24l-.34,1.47c-.38-.11-.69-.16-.93-.16-.84,0-1.62.36-2.33,1.08v5.75h-1.78v-8.16h1.73v1c.72-.8,1.56-1.21,2.53-1.21Z"/>
        <path class="cls-1" d="M141.98,49.84c-.2.21-.46.31-.8.31s-.61-.1-.81-.31c-.2-.21-.3-.48-.3-.83s.1-.62.3-.82c.2-.2.47-.3.81-.3s.6.1.8.3c.2.2.29.48.29.82s-.1.63-.29.83ZM140.28,59.38v-8.16h1.76v8.16h-1.76Z"/>
        <path class="cls-1" d="M147.42,51.01c1.09,0,1.95.29,2.58.88s.95,1.43.95,2.51v4.98h-1.62v-1.24c-.62.96-1.54,1.44-2.77,1.44-.84,0-1.52-.23-2.03-.69-.52-.46-.78-1.07-.78-1.82,0-.94.37-1.62,1.11-2.04.74-.42,1.7-.64,2.87-.64.47,0,.98.04,1.55.11v-.18c0-.6-.17-1.05-.51-1.36-.34-.31-.82-.46-1.44-.46-.88,0-1.72.32-2.51.96l-.85-1.14c.9-.87,2.05-1.31,3.44-1.31ZM146.93,58.22c.72,0,1.28-.24,1.68-.73.4-.48.62-1.11.67-1.89-.57-.05-1.03-.08-1.4-.08-1.57,0-2.35.48-2.35,1.45,0,.37.13.67.38.9.25.23.6.34,1.02.34Z"/>
        <path class="cls-1" d="M155.64,59.56c-1.39,0-2.49-.42-3.3-1.27l.77-1.13c.78.66,1.62,1,2.5,1,.43,0,.81-.09,1.13-.26.32-.17.47-.43.47-.77,0-.11-.02-.21-.06-.3s-.1-.18-.18-.25c-.08-.08-.16-.14-.24-.2-.08-.05-.19-.11-.33-.16-.15-.05-.26-.1-.35-.13s-.22-.08-.4-.13c-.18-.05-.31-.09-.38-.11-.78-.25-1.39-.55-1.82-.9s-.64-.84-.64-1.49c0-.77.3-1.37.9-1.8.6-.43,1.36-.64,2.27-.64,1.12,0,2.09.3,2.91.91l-.74,1.14c-.71-.47-1.41-.7-2.12-.7-.44,0-.79.09-1.06.27-.27.18-.41.41-.41.69,0,.16.04.31.12.43.08.13.22.24.42.33.2.1.36.17.48.21s.33.11.63.2c.46.14.81.27,1.07.38.26.11.54.26.85.45.31.19.54.42.68.7.14.28.21.61.21.99,0,.81-.33,1.43-.98,1.88-.65.45-1.45.67-2.38.67Z"/>
      </g>
    </g>
  </g>
</svg>