<?xml version="1.0" encoding="UTF-8"?>
<svg id="Camada_3" data-name="Camada 3" xmlns="http://www.w3.org/2000/svg" viewBox="0 0 263.51 104.04">
  <defs>
    <style>
      .cls-1 {
        fill: #082b41;
      }
    </style>
  </defs>
  <g id="Camada_1" data-name="Camada 1">
    <path class="cls-1" d="M25.09,19.64C11.77,31.51,2.68,47.24.04,64.81c-.32,2.11,1.28,3.88,3.4,4.16,1.41.19,3.07.21,4.54.17,6.52-.15,13.38-2.27,20.47-3.48,1.3-.22,2.17-1.28,2.17-2.49V22.12c0-2.87-3.39-4.38-5.53-2.47M128.71,19c-5.64,0-10.84,1.85-15.03,5,0,0,0,0,0,0,0,0-.02,0-.02-.01,0-2.16-1.36-4.12-3.43-4.75-3.44-1.05-6.59,1.49-6.59,4.77v39.94c0,2.7,2.07,5.02,4.77,5.15,2.88.14,5.25-2.16,5.25-5v-20.04c0-8.31,6.74-15.04,15.05-15.04,4.42,0,8.39,1.9,11.14,4.93,1.51,1.67,3.97,2.19,5.99,1.19,2.98-1.48,3.71-5.38,1.5-7.84-4.59-5.09-11.23-8.29-18.63-8.29M216.33,28.88c2.77-4.02,6.61-7.24,11.11-9.27.31-.14.21-.61-.13-.61h-23.11c-.18,0-.32.14-.32.32v9.38c0,.18.14.32.32.32h11.88c.1,0,.2-.05.26-.14M197.14,0h0c-2.77,0-5.01,2.24-5.01,5.01v39.05c0,8.3-6.74,15.04-15.05,15.04s-15.05-6.73-15.05-15.04,6.74-15.04,15.05-15.04c0,0,0,0,0,0h13.01c.18,0,.32-.14.32-.32v-9.38c0-.18-.14-.32-.32-.32h-13.01c-13.84,0-25.07,11.22-25.07,25.05s11.22,25.05,25.07,25.05,25.07-11.22,25.07-25.05V5.01c0-2.77-2.24-5.01-5.01-5.01M263.47,42.93c-.14-3.13-3.13-5.33-6.16-4.53l-.21.05c-2.25.6-3.73,2.69-3.64,5.02,0,.19.01.39.01.58,0,8.3-6.74,15.04-15.05,15.04s-15.05-6.73-15.05-15.04,6.74-15.04,15.05-15.04c.36,0,.73.01,1.08.04,2.2.16,4.25-1.13,4.96-3.21l.1-.28c1.05-3.05-1.08-6.26-4.3-6.49-.61-.05-1.22-.07-1.84-.07-13.84,0-25.07,11.22-25.07,25.05s11.22,25.05,25.07,25.05,25.07-11.22,25.07-25.05c0-.38,0-.75-.02-1.13M78.98,65.53c.22,2.46-2.25,4.27-4.53,3.33-1.39-.57-2.74-1.1-3.59-1.38-9.01-2.98-19-4.19-30.12-3.39-1.93.14-3.5-1.33-3.5-3.21V3.55c0-3.3,3.36-4.52,5.74-2.7,19.06,14.55,32.08,35.59,35.54,60.43.15,1.06.31,2.66.45,4.25M61.81,85.18c-.47.52-1.12,1.01-1.95,1.46.52.72.79,1.57.79,2.54,0,1.39-.53,2.49-1.58,3.3-1.05.81-2.47,1.22-4.23,1.22-.78,0-1.48-.08-2.11-.24-.49.23-.73.56-.73.97,0,.38.22.66.66.85.44.19,1.11.34,2.01.45,2.38.31,3.89.58,4.52.81,1.55.63,2.33,1.7,2.33,3.22,0,1.39-.59,2.45-1.79,3.18s-2.88,1.1-5.06,1.1c-1.95,0-3.48-.33-4.61-1-1.13-.67-1.69-1.62-1.69-2.84,0-1.37.73-2.38,2.19-3.03-.78-.52-1.16-1.24-1.16-2.16s.49-1.74,1.46-2.35c-1.14-.79-1.7-1.92-1.7-3.38s.52-2.53,1.57-3.37c1.05-.84,2.44-1.26,4.19-1.26,1.15,0,2.18.2,3.08.6.97-.45,1.79-1.04,2.43-1.76l1.38,1.7ZM55.72,98.33c-1.53-.18-2.54-.32-3.03-.41-1.05.49-1.57,1.13-1.57,1.92,0,1.33,1.22,2,3.65,2,2.6,0,3.9-.63,3.9-1.89,0-.52-.23-.89-.69-1.11-.46-.22-1.21-.39-2.26-.51ZM54.85,91.57c.96,0,1.71-.21,2.27-.62.56-.41.84-1,.84-1.76s-.28-1.35-.84-1.77c-.56-.42-1.32-.64-2.27-.64s-1.7.22-2.25.65c-.54.43-.81,1.04-.81,1.81,0,1.55,1.02,2.33,3.06,2.33ZM69.79,96.25c1.48,0,2.87-.52,4.17-1.57l1.35,1.97c-1.61,1.37-3.5,2.06-5.68,2.06-1.95,0-3.53-.62-4.75-1.85-1.22-1.23-1.83-2.91-1.83-5.02s.62-3.79,1.85-5.19c1.23-1.41,2.94-2.11,5.12-2.11,1.5,0,2.79.41,3.87,1.23s1.62,1.97,1.62,3.45c0,1.08-.33,1.96-1,2.62-.67.67-1.64,1-2.92,1h-5.71c.36,2.27,1.66,3.41,3.89,3.41ZM69.95,86.81c-1.08,0-2,.35-2.75,1.05-.75.7-1.2,1.67-1.37,2.89h5.22c.54,0,.96-.14,1.27-.43.31-.29.46-.7.46-1.24,0-.63-.26-1.17-.77-1.61-.51-.44-1.2-.66-2.07-.66ZM82.63,98.71c-2.31,0-4.13-.7-5.46-2.11l1.27-1.87c1.3,1.1,2.68,1.65,4.14,1.65.72,0,1.34-.14,1.87-.43.52-.29.78-.71.78-1.27,0-.18-.03-.35-.09-.5-.06-.15-.16-.29-.3-.42-.13-.13-.27-.23-.39-.33-.13-.09-.31-.18-.55-.27-.24-.09-.44-.16-.58-.22s-.37-.13-.66-.22c-.3-.09-.51-.15-.64-.19-1.3-.41-2.3-.91-3.02-1.49-.71-.58-1.07-1.4-1.07-2.46,0-1.28.5-2.28,1.49-2.99.99-.71,2.25-1.07,3.76-1.07,1.86,0,3.46.5,4.81,1.51l-1.22,1.89c-1.17-.78-2.34-1.16-3.52-1.16-.72,0-1.31.15-1.76.45-.45.3-.68.68-.68,1.15,0,.27.07.51.2.72.13.21.37.39.69.55.32.16.59.28.8.35.21.07.55.18,1.04.32.76.24,1.35.44,1.77.62.42.18.89.43,1.41.74.51.32.89.7,1.12,1.16.23.46.35,1,.35,1.64,0,1.33-.54,2.37-1.62,3.11-1.08.74-2.4,1.11-3.95,1.11ZM99.13,95.25l1.03,2.19c-1.17.85-2.49,1.27-3.95,1.27s-2.51-.43-3.25-1.29c-.74-.86-1.11-2.03-1.11-3.53v-6.84h-2.19v-2.16h2.19v-4.19h2.92v4.19h4.6v2.16h-4.6v6.76c0,.78.2,1.34.61,1.69.41.35.88.53,1.42.53.78,0,1.55-.26,2.33-.79ZM107.03,84.54c1.8,0,3.23.49,4.27,1.46,1.05.97,1.57,2.36,1.57,4.17v8.25h-2.68v-2.06c-1.03,1.59-2.56,2.38-4.6,2.38-1.39,0-2.51-.38-3.37-1.15-.86-.77-1.29-1.77-1.29-3.02,0-1.55.61-2.68,1.84-3.38,1.23-.7,2.81-1.05,4.76-1.05.78,0,1.63.06,2.57.19v-.3c0-.99-.28-1.74-.84-2.26-.56-.51-1.35-.77-2.38-.77-1.46,0-2.85.53-4.17,1.6l-1.41-1.89c1.5-1.44,3.4-2.16,5.71-2.16ZM105.54,81.59c-.65,0-1.15.5-1.49,1.49l-1.92-.73c.23-.96.64-1.67,1.22-2.15.58-.48,1.25-.72,2.03-.72.63,0,1.3.25,2.01.74.71.5,1.24.74,1.58.74.67,0,1.14-.5,1.41-1.52l2.03.62c-.18.92-.59,1.65-1.22,2.19-.63.54-1.31.81-2.03.81-.61,0-1.29-.25-2.03-.74-.74-.5-1.27-.74-1.6-.74ZM106.22,96.49c1.19,0,2.12-.4,2.79-1.2s1.04-1.84,1.11-3.12c-.94-.09-1.71-.13-2.33-.13-2.6,0-3.89.8-3.89,2.41,0,.61.21,1.11.63,1.49.42.38.99.57,1.69.57ZM122.23,98.76c-2.02,0-3.63-.65-4.84-1.95s-1.8-3.02-1.79-5.17c.02-2.16.63-3.89,1.83-5.18s2.8-1.93,4.8-1.93,3.66.64,4.86,1.93,1.8,3.02,1.8,5.18-.6,3.87-1.8,5.17-2.82,1.95-4.86,1.95ZM122.23,96.28c2.47,0,3.71-1.54,3.71-4.63s-1.24-4.62-3.71-4.62c-1.21,0-2.13.39-2.76,1.18-.63.78-.95,1.93-.95,3.45,0,3.08,1.23,4.63,3.71,4.63ZM146.93,79.1h2.92v19.31h-2.81v-1.35c-1.26,1.14-2.68,1.7-4.25,1.7-1.68,0-3.05-.63-4.12-1.89-1.07-1.26-1.61-2.93-1.61-5,0-2.22.59-3.99,1.79-5.33,1.19-1.33,2.72-2,4.6-2,1.33,0,2.5.36,3.49,1.08v-6.52ZM143.41,96.25c1.33,0,2.51-.56,3.52-1.68v-6.19c-.94-.88-2.02-1.33-3.25-1.33-1.1,0-1.98.41-2.64,1.22s-.99,1.99-.99,3.54c0,1.39.29,2.48.88,3.26.58.79,1.41,1.18,2.47,1.18ZM159.48,96.25c1.48,0,2.87-.52,4.17-1.57l1.35,1.97c-1.61,1.37-3.5,2.06-5.68,2.06-1.95,0-3.53-.62-4.75-1.85-1.22-1.23-1.83-2.91-1.83-5.02s.62-3.79,1.85-5.19c1.23-1.41,2.94-2.11,5.12-2.11,1.5,0,2.79.41,3.87,1.23s1.62,1.97,1.62,3.45c0,1.08-.33,1.96-1,2.62-.67.67-1.64,1-2.92,1h-5.71c.36,2.27,1.66,3.41,3.89,3.41ZM159.64,86.81c-1.08,0-2,.35-2.75,1.05-.75.7-1.2,1.67-1.37,2.89h5.22c.54,0,.96-.14,1.27-.43.31-.29.46-.7.46-1.24,0-.63-.26-1.17-.77-1.61-.51-.44-1.2-.66-2.07-.66ZM182.77,84.89h3.03l-4.87,12.5c-.31.79-.97,1.19-2,1.19-.56,0-.99-.09-1.3-.27s-.55-.49-.73-.92l-4.9-12.5h3.17l3.79,10.96,3.81-10.96ZM190.72,82.59c-.32.34-.77.51-1.33.51s-1-.17-1.34-.51c-.33-.34-.5-.8-.5-1.38s.17-1.03.5-1.37.78-.5,1.34-.5,1,.17,1.33.5c.33.33.49.79.49,1.37s-.16,1.04-.49,1.38ZM187.91,98.41v-13.52h2.92v13.52h-2.92ZM199.73,84.54c1.8,0,3.23.49,4.27,1.46,1.05.97,1.57,2.36,1.57,4.17v8.25h-2.68v-2.06c-1.03,1.59-2.56,2.38-4.6,2.38-1.39,0-2.51-.38-3.37-1.15-.86-.77-1.29-1.77-1.29-3.02,0-1.55.61-2.68,1.84-3.38,1.23-.7,2.81-1.05,4.76-1.05.78,0,1.63.06,2.57.19v-.3c0-.99-.28-1.74-.84-2.26-.56-.51-1.35-.77-2.38-.77-1.46,0-2.85.53-4.17,1.6l-1.41-1.89c1.5-1.44,3.4-2.16,5.71-2.16ZM198.92,96.49c1.19,0,2.12-.4,2.79-1.2s1.04-1.84,1.11-3.12c-.94-.09-1.71-.13-2.33-.13-2.6,0-3.89.8-3.89,2.41,0,.61.21,1.11.63,1.49.42.38.99.57,1.69.57ZM221.34,85.18c-.47.52-1.12,1.01-1.95,1.46.52.72.79,1.57.79,2.54,0,1.39-.53,2.49-1.58,3.3-1.05.81-2.47,1.22-4.23,1.22-.78,0-1.48-.08-2.11-.24-.49.23-.73.56-.73.97,0,.38.22.66.66.85.44.19,1.11.34,2.01.45,2.38.31,3.89.58,4.52.81,1.55.63,2.33,1.7,2.33,3.22,0,1.39-.59,2.45-1.79,3.18s-2.88,1.1-5.06,1.1c-1.95,0-3.48-.33-4.61-1-1.13-.67-1.69-1.62-1.69-2.84,0-1.37.73-2.38,2.19-3.03-.78-.52-1.16-1.24-1.16-2.16s.49-1.74,1.46-2.35c-1.14-.79-1.7-1.92-1.7-3.38s.52-2.53,1.57-3.37c1.05-.84,2.44-1.26,4.19-1.26,1.15,0,2.18.2,3.08.6.97-.45,1.79-1.04,2.43-1.76l1.38,1.7ZM215.25,98.33c-1.53-.18-2.54-.32-3.03-.41-1.05.49-1.57,1.13-1.57,1.92,0,1.33,1.22,2,3.65,2,2.6,0,3.9-.63,3.9-1.89,0-.52-.23-.89-.69-1.11-.46-.22-1.21-.39-2.26-.51ZM214.39,91.57c.96,0,1.71-.21,2.27-.62.56-.41.84-1,.84-1.76s-.28-1.35-.84-1.77c-.56-.42-1.32-.64-2.27-.64s-1.7.22-2.25.65c-.54.43-.81,1.04-.81,1.81,0,1.55,1.02,2.33,3.06,2.33ZM229.32,96.25c1.48,0,2.87-.52,4.17-1.57l1.35,1.97c-1.61,1.37-3.5,2.06-5.68,2.06-1.95,0-3.53-.62-4.75-1.85-1.22-1.23-1.83-2.91-1.83-5.02s.62-3.79,1.85-5.19c1.23-1.41,2.94-2.11,5.12-2.11,1.5,0,2.79.41,3.87,1.23s1.62,1.97,1.62,3.45c0,1.08-.33,1.96-1,2.62-.67.67-1.64,1-2.92,1h-5.71c.36,2.27,1.66,3.41,3.89,3.41ZM229.48,86.81c-1.08,0-2,.35-2.75,1.05-.75.7-1.2,1.67-1.37,2.89h5.22c.54,0,.96-.14,1.27-.43.31-.29.46-.7.46-1.24,0-.63-.26-1.17-.77-1.61-.51-.44-1.2-.66-2.07-.66ZM245.79,84.54c1.39,0,2.46.38,3.21,1.12.75.75,1.12,1.82,1.12,3.21v9.55h-3v-8.87c0-.88-.16-1.51-.49-1.89-.32-.38-.84-.57-1.54-.57-1.32,0-2.71.58-4.19,1.73v9.6h-3v-13.52h2.84v1.62c1.69-1.32,3.38-1.97,5.06-1.97ZM257.94,98.71c-2.31,0-4.13-.7-5.46-2.11l1.27-1.87c1.3,1.1,2.68,1.65,4.14,1.65.72,0,1.34-.14,1.87-.43.52-.29.78-.71.78-1.27,0-.18-.03-.35-.09-.5-.06-.15-.16-.29-.3-.42-.13-.13-.27-.23-.39-.33-.13-.09-.31-.18-.55-.27-.24-.09-.44-.16-.58-.22s-.37-.13-.66-.22c-.3-.09-.51-.15-.64-.19-1.3-.41-2.3-.91-3.02-1.49-.71-.58-1.07-1.4-1.07-2.46,0-1.28.5-2.28,1.49-2.99.99-.71,2.25-1.07,3.76-1.07,1.86,0,3.46.5,4.81,1.51l-1.22,1.89c-1.17-.78-2.34-1.16-3.52-1.16-.72,0-1.31.15-1.76.45-.45.3-.68.68-.68,1.15,0,.27.07.51.2.72.13.21.37.39.69.55.32.16.59.28.8.35.21.07.55.18,1.04.32.76.24,1.35.44,1.77.62.42.18.89.43,1.41.74.51.32.89.7,1.12,1.16.23.46.35,1,.35,1.64,0,1.33-.54,2.37-1.62,3.11-1.08.74-2.4,1.11-3.95,1.11Z"/>
  </g>
</svg>