<?xml version="1.0" encoding="UTF-8"?>
<svg id="Camada_2" data-name="Camada 2" xmlns="http://www.w3.org/2000/svg" viewBox="0 0 264.48 106.42">
  <defs>
    <style>
      .cls-1 {
        letter-spacing: -.02em;
      }

      .cls-2 {
        font-family: Intelo-SemiBold, Intelo;
        font-size: 27.05px;
        font-weight: 600;
      }

      .cls-2, .cls-3 {
        fill: #ff5c6c;
      }

      .cls-4 {
        letter-spacing: 0em;
      }

      .cls-5 {
        letter-spacing: 0em;
      }

      .cls-6 {
        letter-spacing: 0em;
      }

      .cls-7 {
        letter-spacing: 0em;
      }
    </style>
  </defs>
  <g id="Camada_1" data-name="Camada 1">
    <g>
      <path class="cls-3" d="M25.09,19.64C11.77,31.51,2.68,47.24.04,64.81c-.32,2.11,1.28,3.88,3.4,4.16,1.41.19,3.07.21,4.54.17,6.52-.15,13.38-2.27,20.47-3.48,1.3-.22,2.17-1.28,2.17-2.49V22.12c0-2.87-3.39-4.38-5.53-2.47M128.71,19c-5.64,0-10.84,1.85-15.03,5,0,0,0,0,0,0,0,0-.02,0-.02-.01,0-2.16-1.36-4.12-3.43-4.75-3.44-1.05-6.59,1.49-6.59,4.77v39.94c0,2.7,2.07,5.02,4.77,5.15,2.88.14,5.25-2.16,5.25-5v-20.04c0-8.31,6.74-15.04,15.05-15.04,4.42,0,8.39,1.9,11.14,4.93,1.51,1.67,3.97,2.19,5.99,1.19,2.98-1.48,3.71-5.38,1.5-7.84-4.59-5.09-11.23-8.29-18.63-8.29M216.33,28.88c2.77-4.02,6.61-7.24,11.11-9.27.31-.14.21-.61-.13-.61h-23.11c-.18,0-.32.14-.32.32v9.38c0,.18.14.32.32.32h11.88c.1,0,.2-.05.26-.14M197.14,0h0c-2.77,0-5.01,2.24-5.01,5.01v39.05c0,8.3-6.74,15.04-15.05,15.04s-15.05-6.73-15.05-15.04,6.74-15.04,15.05-15.04c0,0,0,0,0,0h13.01c.18,0,.32-.14.32-.32v-9.38c0-.18-.14-.32-.32-.32h-13.01c-13.84,0-25.07,11.22-25.07,25.05s11.22,25.05,25.07,25.05,25.07-11.22,25.07-25.05V5.01c0-2.77-2.24-5.01-5.01-5.01M263.47,42.93c-.14-3.13-3.13-5.33-6.16-4.53l-.21.05c-2.25.6-3.73,2.69-3.64,5.02,0,.19.01.39.01.58,0,8.3-6.74,15.04-15.05,15.04s-15.05-6.73-15.05-15.04,6.74-15.04,15.05-15.04c.36,0,.73.01,1.08.04,2.2.16,4.25-1.13,4.96-3.21l.1-.28c1.05-3.05-1.08-6.26-4.3-6.49-.61-.05-1.22-.07-1.84-.07-13.84,0-25.07,11.22-25.07,25.05s11.22,25.05,25.07,25.05,25.07-11.22,25.07-25.05c0-.38,0-.75-.02-1.13M78.98,65.53c.22,2.46-2.25,4.27-4.53,3.33-1.39-.57-2.74-1.1-3.59-1.38-9.01-2.98-19-4.19-30.12-3.39-1.93.14-3.5-1.33-3.5-3.21V3.55c0-3.3,3.36-4.52,5.74-2.7,19.06,14.55,32.08,35.59,35.54,60.43.15,1.06.31,2.66.45,4.25"/>
      <text class="cls-2" transform="translate(47.71 98.41)"><tspan class="cls-7" x="0" y="0">g</tspan><tspan class="cls-6" x="14.28" y="0">es</tspan><tspan class="cls-5" x="41.47" y="0">t</tspan><tspan class="cls-4" x="52.29" y="0">ão de</tspan><tspan class="cls-1" x="118.5" y="0"> </tspan><tspan class="cls-4" x="124.02" y="0">via</tspan><tspan class="cls-7" x="159.53" y="0">g</tspan><tspan x="173.81" y="0">ens</tspan></text>
    </g>
  </g>
</svg>